<?xml version="1.0" encoding="iso-8859-1"?>
<!-- Generator: Adobe Illustrator 19.0.0, SVG Export Plug-In . SVG Version: 6.00 Build 0)  -->
<svg version="1.1" id="Layer_1" xmlns="http://www.w3.org/2000/svg" xmlns:xlink="http://www.w3.org/1999/xlink" x="0px" y="0px"
	 viewBox="0 0 512 512" style="enable-background:new 0 0 512 512;" xml:space="preserve">
<polygon style="fill:#FFBE00;" points="512,134.191 235.085,113.276 256,479.014 512,479.014 "/>
<polygon style="fill:#FFE074;" points="0,134.191 0,479.014 256,479.014 256,113.276 "/>
<g>
	<polygon style="fill:#FC2B32;" points="355.257,144.648 449.314,144.648 438.857,32.986 365.714,32.986 	"/>
	<polygon style="fill:#FC2B32;" points="208.971,144.648 303.029,144.648 292.571,32.986 219.429,32.986 	"/>
	<polygon style="fill:#FC2B32;" points="62.686,144.648 156.743,144.648 146.286,32.986 73.143,32.986 	"/>
</g>
<g>
	<path style="fill:#FF5D65;" d="M438.857,134.191v17.854c0,19.551-15.849,35.4-35.4,35.4h-2.342c-19.551,0-35.4-15.849-35.4-35.4
		v-17.854H438.857z"/>
	<path style="fill:#FF5D65;" d="M292.571,134.191v17.854c0,19.551-15.849,35.4-35.4,35.4h-2.342c-19.551,0-35.4-15.849-35.4-35.4
		v-17.854H292.571z"/>
	<path style="fill:#FF5D65;" d="M146.286,134.191v17.854c0,19.551-15.849,35.4-35.4,35.4h-2.342
		c-19.552,0-35.401-15.849-35.401-35.4v-17.854L146.286,134.191L146.286,134.191z"/>
</g>
<rect x="83.404" y="237.704" style="fill:#F37A23;" width="61.127" height="241.309"/>
<rect x="144.53" y="237.704" style="fill:#D14901;" width="61.127" height="241.309"/>
<rect x="285.571" y="237.704" style="fill:#63C8EE;" width="81.972" height="133.507"/>
<rect x="367.543" y="237.704" style="fill:#0089D3;" width="81.972" height="133.507"/>
<g>
	<polygon style="fill:#ED0003;" points="438.857,134.191 475.429,144.648 511.999,134.191 511.999,32.986 438.857,32.986 	"/>
	<polygon style="fill:#ED0003;" points="292.571,134.191 329.143,144.648 365.714,134.191 365.714,32.986 292.571,32.986 	"/>
	<polygon style="fill:#ED0003;" points="146.286,134.191 182.857,144.648 219.429,134.191 219.429,32.986 146.286,32.986 	"/>
	<polygon style="fill:#ED0003;" points="0,134.191 36.571,144.648 73.143,134.191 73.143,32.986 0,32.986 	"/>
</g>
<g>
	<path style="fill:#FC2B32;" d="M512,134.191v17.854c0,19.551-15.849,35.4-35.4,35.4h-2.342c-19.551,0-35.4-15.849-35.4-35.4
		v-17.854H512z"/>
	<path style="fill:#FC2B32;" d="M365.714,134.191v17.854c0,19.551-15.849,35.4-35.4,35.4h-2.342c-19.551,0-35.4-15.849-35.4-35.4
		v-17.854H365.714z"/>
	<path style="fill:#FC2B32;" d="M219.429,134.191v17.854c0,19.551-15.849,35.4-35.4,35.4h-2.342c-19.551,0-35.4-15.849-35.4-35.4
		v-17.854H219.429z"/>
	<path style="fill:#FC2B32;" d="M73.143,134.191v17.854c0,19.551-15.849,35.4-35.4,35.4h-2.342C15.849,187.445,0,171.596,0,152.045
		v-17.854L73.143,134.191L73.143,134.191z"/>
</g>
<g>
</g>
<g>
</g>
<g>
</g>
<g>
</g>
<g>
</g>
<g>
</g>
<g>
</g>
<g>
</g>
<g>
</g>
<g>
</g>
<g>
</g>
<g>
</g>
<g>
</g>
<g>
</g>
<g>
</g>
</svg>
